<svg xmlns="http://www.w3.org/2000/svg" viewBox="0 0 100 100" id="Soccer"><path d="M30.421 34.241c.069.111.165.263.293.596.333.865 1.645 4.012 4.561 8.215 2.213 3.19 3.781 3.766 4.534 4.043.07.026.153.056.21.081.058.411-.062 1.737-.151 2.723-.104 1.151-.211 2.341-.174 3.059.044.835.243 1.605.455 2.423.203.781.433 1.668.569 2.773.281 2.276.532 7.883.532 8.951 0 1.09-.275 4.255-.408 5.775-.236 2.726-.149 4.904.261 6.476.098.375.205.807.321 1.271.48 1.922 1.078 4.314 1.748 5.922.59 1.415.593 2.342.597 3.513.001.365.002.743.022 1.154.093 1.975.512 3.027 1.398 3.521.325.179.732.263 1.284.263.439 0 .912-.052 1.412-.106.335-.037.678-.075 1.016-.096 1.472-.092 1.852-.504 2.264-1.12.465-.7-.196-1.3-.678-1.737-.172-.156-.353-.32-.509-.497-.329-.376-.764-1.236-1.225-2.147-.269-.531-.552-1.091-.845-1.619-.778-1.398-.927-3.572-1.013-5.68-.04-.975.023-1.961.084-2.915.074-1.164.144-2.263 0-3.127-.15-.906-.097-2.655.16-5.197.062-.606.895-3.215 1.461-4.895 3.133-.96 4.856-1.583 5.125-1.852.114-.114.395-.395.402-2.977.982.973 2.299 2.149 2.969 2.217h.004c.982.001 3.277-1.603 4.244-2.311.247.102.652.281 1.03.518.026.103-.204.372-.302.487a4.664 4.664 0 0 0-.158.193l-.159.198c-.603.74-2.433 2.994-3.109 5.021-.286.858-.562 1.889-.827 2.885-.412 1.552-.84 3.155-1.266 3.912a67.03 67.03 0 0 1-.797 1.361c-.834 1.41-1.875 3.165-2.188 4.04-.463 1.298.06 2.805.082 2.869a.488.488 0 0 0 .426.326c.033.002 3.256.247 4.596.562.477.112 1.47.327 2.57.562-2.709.387-4.802 2.716-4.802 5.527a5.595 5.595 0 0 0 5.59 5.59 5.595 5.595 0 0 0 5.589-5.59 5.587 5.587 0 0 0-2.637-4.737l.993.207a.486.486 0 0 0 .58-.374c.034-.154.19-.956-.14-1.507-.223-.37-.902-.805-1.998-1.474-.295-.181-.569-.349-.773-.484-.658-.439-2.254-2.107-2.668-2.859-.299-.546.293-1.759.646-2.484l.088-.179c.43-.891 2.73-4.286 3.924-5.717 1.204-1.445 3.292-5.403 3.389-6.668.034-.441.184-.965.342-1.52.195-.688.397-1.398.397-2.041 0-.978-.414-1.561-.853-2.178-.119-.168-.246-.346-.371-.544-.578-.907-2.551-3.63-4.648-5.812-1.739-1.809-4.074-3.585-4.824-4.142.086-.6.314-2.044.683-3.329.413-1.445.599-5.292.697-7.358.023-.482.042-.867.058-1.101.082-1.241-.625-3.113-1.141-4.48l-.119-.313c-.235-.629-.602-2.093-.955-3.508-.368-1.473-.717-2.864-.936-3.391-.468-1.122-1.591-1.525-2.492-1.85l-.17-.061c-.611-.223-1.789-.965-2.391-1.364a11.298 11.298 0 0 0-.162-1.295c-.056-.304-.003-.931.424-2.201.197-.345.311-.7.365-.996.078-.2.155-.4.248-.624.596-1.447 1.092-3.123 1.254-3.849.172-.771-.242-1.971-.605-3.03l-.146-.428C53.271 6.491 51.275 5 49.525 5c-1.446 0-2.194.859-2.855 1.616-.169.194-.34.391-.525.576-1.035 1.036-1.454 3.506-1.454 4.362 0 .225-.037.421-.07.604-.089.5-.19 1.067.338 1.746.37.475.729.542.943.567.008.029.017.068.025.12.139.757-.484 3.021-1.045 3.458-.301.234-1.783.568-2.865.812-1.277.287-2.483.559-3.049.863-1.085.585-1.949 2.036-2.864 3.573l-.273.458c-.57.951-1.578 2.489-2.388 3.724-.591.9-1.094 1.669-1.299 2.011l-.167.277c-.546.901-1.371 2.263-1.609 3.216-.167.666-.2.856.053 1.258zm29.03 53.422l-.154-2.161a4.744 4.744 0 0 1 2.464-.841l1.068 1.716 2.007-.815a4.776 4.776 0 0 1 1.666 2.225l-1.363 1.618 1.363 1.619a4.767 4.767 0 0 1-1.614 2.183l-1.904-.774-1.077 1.732a4.726 4.726 0 0 1-2.605-.853l.152-2.106-1.99-.49a4.86 4.86 0 0 1-.203-1.311 4.685 4.685 0 0 1 .182-1.243l2.008-.499zM39.688 41.79c-.314-.222-.697-.583-1.051-1.161l-.383-.617c-.879-1.402-1.971-3.148-2.17-4.679-.138-1.049-.371-1.582-.525-1.934-.119-.27-.117-.274-.085-.349.16-.372.44-.263.803-.082.586.293 1.454-.301 2.101-.958l.912 6.162c.2 1.358.329 2.757.398 3.618zm12.578-27.145a27.063 27.063 0 0 0-.592 1.557c-.244.398-.674.775-1.432.68-1.541-.192-1.872-.53-1.875-.533-.122-.243-.396-.308-.64-.188-.243.122-.321.449-.2.692.136.271.653.763 2.591 1.005.131.016.255.024.374.024.278 0 .519-.054.744-.127-.102.52-.123.94-.066 1.263a8.82 8.82 0 0 1 .158 1.389c.002.162.08.313.215.405l.207.139c-.572.521-1.619 1.434-1.75 1.256-.148-.202-3.185-2.764-4.25-3.66.794-.971 1.311-3.214 1.145-4.129-.109-.598-.354-.864-.846-.917-.116-.012-.175-.019-.314-.198-.261-.333-.222-.546-.146-.969.035-.193.068-.416.078-.665.178-.162.482-.27.745.54.143.44 0-2.13.983-3.277.982-1.147 1.363-.958 3.249-.466 1.244.324 2.251 1.271 2.8 1.884.043.244.059.459.025.608-.154.69-.629 2.293-1.203 3.687zm3.984 23.702a24.277 24.277 0 0 0-.262-1.737c-.176-.875-.184-2.016-.156-2.848l.456.473c-.01.61-.03 2.4.04 3.171.017.183-.016.522-.078.941zm2.553 4.945c-.331 1.16-.549 2.399-.66 3.126a22.167 22.167 0 0 1-1.4-.83c-.738-.491-.58-1.017-.334-2.409.064-.368.078-.782.066-1.192a.521.521 0 0 0 .08-.168c.086-.36.839-3.547.752-4.501-.061-.666-.047-2.22-.037-2.915.25.053.697.034 1.187-.564.296-.362.554-.549.757-.647.203.693.342 1.36.31 1.846-.016.237-.034.628-.058 1.119-.099 2.026-.28 5.799-.663 7.135zm.775 24.379c.496-1.49 1.71-3.154 2.471-4.125.561.375 1.635 1.011 2.716 1.182.817.13 1.958.151 2.622.152-.672 1.466-1.723 3.344-2.508 4.286-1.254 1.505-3.593 4.965-4.054 5.919l-.085.176c-.403.825-.916 1.896-.799 2.803-.678.201-1.952.559-2.878.675-.788.099-1.556.078-2.046.047.451-.852 1.078-1.91 1.585-2.767.315-.532.603-1.017.808-1.38.486-.865.91-2.456 1.359-4.141.262-.982.532-1.998.809-2.827zm1.606-7.766l.084-.094-3.467-.737s.737-1.311 2.785-3.113c1.51-1.329 3.592-1.818 4.586-1.984 1.159 1.416 2.133 2.761 2.537 3.397.137.213.271.404.4.585.403.568.67.943.67 1.608 0 .506-.184 1.149-.36 1.771-.052.182-.099.366-.147.55-.398.077-1.014.139-1.868.054a56.31 56.31 0 0 1-3.034-.407c.008-.074.023-.146.011-.224-.03-.193-.138-.469-.485-.686-.693-.435-1.436-.693-1.467-.704a.536.536 0 0 0-.245-.016zM46.169 70.58a.165.165 0 0 0-.002.021c-.656-.04-1.808-.131-2.377-.302-.51-.153-1.223-.498-1.688-.736.08-1.066.132-1.948.132-2.459 0-.193-.009-.54-.024-.983h2.399c1.14 0 2.3-.167 2.962-.281-.409 1.221-1.332 4.038-1.402 4.74zm-4.348 2.385l.066-.769c.528.281 1.405.7 2.149.807.702.1 1.444.17 1.917.21-.057 1.057-.069 2.163.055 2.904.126.752.059 1.796-.012 2.902-.062.979-.127 1.992-.085 3.018.091 2.225.253 4.53 1.135 6.118.047.085.09.176.137.262-.361.01-.8.059-1.019.234-.256.207-.939.767-1.415 1.155-.007-1.088-.054-2.154-.67-3.636-.642-1.539-1.23-3.893-1.703-5.783-.116-.468-.226-.901-.324-1.28-.374-1.441-.455-3.565-.231-6.142zm-10.5-39.742c.2-.802.998-2.123 1.482-2.923.379.057.924.207 1.564.59.609.366.937.727 1.113.998a1.28 1.28 0 0 0-.911.775c-.201.472-.061.792.089 1.132.14.318.332.755.45 1.665.228 1.744 1.384 3.59 2.312 5.074l.378.608c1 1.636 2.282 1.93 2.337 1.941a.517.517 0 0 0 .104.011c.032 0 .063-.011.095-.017.617.095 1.819.267 2.473.267.901 0 1.885.164 2.785.737s.656 1.065.656 1.885c0 .82-.633 1.457-1.37 1.457s-1.495.426-1.495.426-.579.004-1.067-.327c-.465-.315-.956-.901-1.488-.94-.005-.006-.008-.015-.013-.021-.163-.204-.396-.29-.666-.389-.659-.242-2.03-.746-4.065-3.681-2.854-4.113-4.129-7.169-4.451-8.008-.163-.421-.298-.636-.379-.765-.034-.09.034-.364.067-.495zM64 89.406l-1.385 1.93-2.248-.737v-2.387l2.248-.737L64 89.406z" fill="#d85b53" class="color000000 svgShape"></path></svg>